<svg width="24" height="24" viewBox="0 0 24 24" fill="none" xmlns="http://www.w3.org/2000/svg">
    <path d="M12 16V19.5" stroke="#222222" stroke-width="1.6" stroke-linecap="round" stroke-linejoin="round" />
    <path
        d="M7.22128 13.5141L6.84344 13.1866L6.84344 13.1866L7.22128 13.5141ZM10.7002 9.5V9C10.5551 9 10.4173 9.06295 10.3223 9.17253L10.7002 9.5ZM16.779 13.5141L16.4012 13.8415L16.4012 13.8415L16.779 13.5141ZM13.3002 9.5L13.678 9.17253C13.583 9.06295 13.4452 9 13.3002 9V9.5ZM7.59913 13.8415L11.078 9.82747L10.3223 9.17253L6.84344 13.1866L7.59913 13.8415ZM8.12811 15C7.52826 15 7.20627 14.2948 7.59913 13.8415L6.84344 13.1866C5.88935 14.2875 6.67134 16 8.12811 16V15ZM15.8722 15H8.12811V16H15.8722V15ZM16.4012 13.8415C16.794 14.2948 16.472 15 15.8722 15V16C17.329 16 18.111 14.2875 17.1569 13.1866L16.4012 13.8415ZM12.9223 9.82747L16.4012 13.8415L17.1569 13.1866L13.678 9.17253L12.9223 9.82747ZM13.3002 9H10.7002V10H13.3002V9Z"
        fill="#222222" />
    <path
        d="M8.3433 7.48913L11.2628 4.30417C11.6592 3.8718 12.3408 3.8718 12.7372 4.30417L15.6567 7.48913C16.3622 8.25881 15.8162 9.5 14.7721 9.5H9.22788C8.18376 9.5 7.63776 8.25881 8.3433 7.48913Z"
        stroke="#222222" stroke-linecap="round" stroke-linejoin="round" />
</svg>